<?xml version="1.0" standalone="no"?>
<!DOCTYPE svg PUBLIC "-//W3C//DTD SVG 20010904//EN"
 "http://www.w3.org/TR/2001/REC-SVG-20010904/DTD/svg10.dtd">
<svg version="1.0" xmlns="http://www.w3.org/2000/svg"
 width="1024.000000pt" height="1024.000000pt" viewBox="0 0 1024.000000 1024.000000"
 preserveAspectRatio="xMidYMid meet">

<g transform="translate(0.000000,1024.000000) scale(0.100000,-0.100000)"
fill="#000000" stroke="none">
<path d="M7119 8974 c-269 -264 -389 -521 -389 -836 0 -65 2 -118 5 -118 3 0
28 11 56 25 43 22 49 29 44 48 -4 15 -3 18 3 9 7 -11 26 -7 98 19 l89 33 0
103 0 102 -26 -52 c-15 -29 -38 -64 -51 -78 -13 -14 -22 -32 -19 -40 4 -12 1
-12 -13 1 -16 12 -19 12 -28 -4 -8 -15 -12 -16 -19 -5 -11 17 -12 88 -1 74 4
-5 12 -11 19 -12 7 -2 3 13 -10 34 -67 114 35 353 248 581 48 50 90 92 93 92
24 -1 145 -260 178 -381 19 -69 21 -205 6 -297 l-9 -53 51 3 51 3 8 55 c30
193 -44 457 -187 672 -92 139 -79 138 -197 22z m-267 -793 c2 -17 1 -28 -4
-25 -8 5 -12 54 -4 54 2 0 6 -13 8 -29z m42 -52 c-8 -13 -24 -1 -24 18 0 13 3
13 15 3 8 -7 12 -16 9 -21z m41 21 c-3 -5 -11 -10 -16 -10 -6 0 -7 5 -4 10 3
6 11 10 16 10 6 0 7 -4 4 -10z m-75 -14 c0 -2 -7 -6 -15 -10 -8 -3 -15 -1 -15
4 0 6 7 10 15 10 8 0 15 -2 15 -4z m10 -20 c0 -3 -4 -8 -10 -11 -5 -3 -10 -1
-10 4 0 6 5 11 10 11 6 0 10 -2 10 -4z"/>
<path d="M6197 8799 c-237 -84 -406 -165 -558 -267 -198 -133 -344 -281 -466
-474 -30 -48 -59 -85 -63 -83 -33 21 -189 46 -335 56 -213 13 -404 43 -470 73
-28 13 -68 38 -88 56 -74 65 -120 16 -126 -134 -1 -12 -34 30 -82 103 -93 140
-251 311 -393 425 -131 105 -305 221 -316 210 -5 -5 -27 -65 -49 -134 -140
-435 -184 -828 -122 -1100 34 -147 77 -245 156 -353 51 -70 52 -72 39 -104
-18 -43 -18 -49 4 -31 9 8 43 29 75 47 31 18 57 38 57 44 0 7 26 50 57 97 75
113 226 266 332 338 83 57 171 107 171 98 0 -3 -14 -27 -30 -54 -60 -96 -77
-281 -27 -290 10 -2 46 10 81 26 l63 30 -4 -67 c-6 -83 6 -129 39 -154 23 -17
28 -18 55 -4 16 9 51 35 79 59 81 72 271 218 331 254 43 25 51 34 34 34 -72 0
-376 -140 -413 -191 -16 -21 -24 -26 -30 -17 -30 48 35 199 126 296 40 43 115
91 169 107 l42 14 -62 0 c-61 1 -102 -9 -126 -29 -26 -23 -155 -114 -214 -152
-35 -22 -63 -44 -63 -49 0 -5 -7 -9 -15 -9 -23 0 -18 24 19 98 64 126 145 203
250 238 l51 17 -32 11 c-43 15 -56 27 -119 111 -15 19 -15 19 -9 -5 4 -14 15
-37 26 -52 23 -33 8 -37 -21 -6 -28 31 -44 89 -36 133 7 34 9 36 25 21 51 -46
163 -71 381 -86 217 -15 383 -35 447 -55 l52 -15 -15 -37 c-37 -87 -56 -298
-35 -388 7 -29 8 -29 15 15 29 157 109 368 188 495 152 242 392 454 665 586
89 43 276 119 294 119 6 0 23 -78 20 -93 0 -4 8 -60 20 -125 51 -287 51 -291
45 -462 -7 -217 -33 -323 -118 -485 -33 -64 -140 -181 -187 -204 -48 -24 -145
-37 -139 -19 3 7 -4 21 -16 31 -20 18 -21 18 -29 -8 -7 -20 -13 -24 -30 -19
-12 4 -20 4 -17 2 3 -3 33 -30 68 -61 71 -63 131 -135 154 -187 16 -35 48
-136 48 -152 0 -4 -31 -8 -70 -8 -59 0 -71 3 -80 20 -16 30 -83 43 -177 36
l-82 -7 -68 56 c-86 72 -185 119 -292 141 -249 50 -526 -86 -646 -318 -21 -40
-39 -74 -39 -75 -1 -1 -30 7 -65 17 -79 25 -144 25 -246 1 -44 -11 -80 -19
-81 -18 0 1 -21 34 -47 73 -54 82 -167 194 -229 225 -132 67 -282 86 -411 50
-94 -26 -178 -67 -236 -115 -42 -35 -45 -36 -127 -36 -79 0 -87 -2 -109 -26
-66 -71 -28 -204 57 -204 33 0 41 -12 33 -48 -4 -20 -15 -32 -40 -41 -32 -11
-195 -171 -195 -192 0 -5 -4 -9 -8 -9 -5 0 -14 84 -20 188 -11 181 -33 328
-67 444 l-16 56 55 103 c54 103 150 336 179 436 15 49 15 53 -4 78 -14 17 -30
25 -50 25 -49 0 -61 -20 -109 -180 -29 -94 -104 -302 -117 -323 -2 -4 -25 52
-50 126 l-46 133 38 50 c47 61 99 170 120 248 67 261 -17 532 -236 760 -75 79
-251 216 -277 216 -18 0 -123 -191 -171 -312 -54 -138 -74 -246 -69 -371 10
-216 91 -381 252 -513 59 -49 177 -114 207 -114 11 0 22 -7 25 -15 4 -8 11
-12 17 -8 5 3 7 2 4 -4 -3 -5 16 -67 43 -137 80 -209 125 -381 155 -601 14
-95 15 -153 10 -280 -5 -88 -7 -171 -6 -183 0 -13 -7 -36 -18 -50 -58 -82
-151 -308 -191 -462 -12 -47 -24 -92 -27 -100 -6 -18 -44 94 -84 250 -17 63
-32 122 -35 131 -3 10 22 42 64 85 76 79 128 172 162 294 24 84 29 280 10 367
-52 238 -188 455 -380 608 -77 61 -169 125 -180 125 -14 0 -126 -172 -173
-265 -99 -197 -143 -378 -133 -555 10 -176 56 -304 155 -426 80 -100 220 -198
325 -229 l41 -12 35 -134 c41 -157 80 -268 126 -361 l33 -66 -8 -124 c-4 -67
-5 -172 -3 -232 l4 -108 -29 22 -30 22 -6 136 c-9 210 -58 357 -177 531 -148
216 -372 375 -657 464 -174 56 -521 123 -538 105 -16 -16 -35 -210 -35 -360 0
-382 107 -640 339 -811 96 -71 313 -157 396 -157 33 0 32 -12 -3 -27 -15 -7
-53 -33 -85 -58 l-57 -45 15 -30 c26 -51 107 -163 149 -209 23 -24 68 -61 100
-82 60 -40 195 -89 244 -89 22 0 16 -6 -33 -30 -81 -39 -138 -90 -166 -147
-22 -46 -23 -56 -20 -255 1 -115 0 -208 -2 -208 -17 0 -143 230 -166 302 -11
34 -10 40 13 71 75 98 75 271 0 420 -58 115 -217 236 -374 286 -156 49 -372
68 -404 35 -19 -18 -21 -87 -6 -219 33 -294 147 -457 380 -548 57 -23 97 -31
167 -35 l91 -5 37 -80 c20 -44 48 -98 62 -120 13 -21 23 -41 21 -43 -2 -2 -45
2 -96 8 -108 13 -194 2 -275 -35 -68 -31 -167 -113 -167 -137 0 -21 47 -111
91 -177 62 -90 176 -167 288 -193 74 -17 211 -8 281 19 30 11 58 21 63 21 4 0
7 -33 7 -73 l0 -74 -56 -13 c-78 -19 -166 -74 -235 -148 -58 -62 -139 -192
-139 -224 0 -18 125 -131 195 -176 100 -65 219 -96 319 -83 l66 7 55 -91 c30
-51 75 -118 100 -149 l46 -56 -28 -11 c-32 -12 -205 -51 -310 -69 -40 -7 -73
-17 -73 -22 0 -14 100 -116 202 -205 107 -94 318 -248 448 -326 47 -28 117
-72 157 -99 40 -26 74 -48 76 -48 3 0 14 27 27 59 l22 59 75 -34 c462 -211
951 -341 1576 -419 143 -18 312 -27 569 -32 517 -9 1010 48 1533 178 237 60
635 203 814 294 l49 24 18 -55 c9 -30 20 -57 24 -59 5 -3 37 13 72 34 34 22
95 59 133 82 126 76 350 238 461 333 112 96 214 198 214 214 0 5 -62 21 -137
36 -140 26 -226 48 -252 65 -12 8 -8 17 21 53 34 42 145 209 200 302 26 45 29
46 76 46 121 0 254 57 386 164 45 37 48 42 43 78 -6 47 -56 154 -99 214 -67
93 -213 174 -314 174 -33 0 -34 1 -34 41 0 31 3 40 14 36 197 -76 376 -68 521
24 106 67 224 206 210 248 -11 35 -138 145 -205 177 -112 54 -227 62 -382 28
-35 -8 -36 5 -2 37 33 31 131 177 145 216 l10 30 97 -5 c115 -5 191 11 298 63
183 89 289 282 301 546 7 149 14 144 -187 143 -169 -1 -259 -21 -373 -81 -96
-51 -201 -156 -247 -247 -33 -66 -35 -75 -35 -171 0 -86 4 -109 24 -152 l23
-51 -27 -50 c-15 -27 -58 -89 -96 -137 -38 -48 -69 -92 -69 -98 0 -6 -3 -7 -7
-3 -5 4 -10 98 -13 209 -6 223 -13 248 -80 315 l-31 31 58 17 c143 41 219 104
331 273 l75 115 -44 37 c-24 21 -59 46 -76 56 -18 10 -33 20 -33 23 0 3 31 13
70 22 191 45 373 168 477 322 48 71 110 212 132 301 34 137 38 427 10 624
l-13 84 -110 -7 c-61 -3 -141 -12 -178 -19 -72 -15 -71 -15 -32 38 54 75 100
180 136 315 14 54 21 121 25 240 5 143 2 180 -16 278 -49 258 -155 456 -344
646 -222 224 -502 358 -839 402 -283 36 -549 -12 -824 -148 -120 -60 -221
-134 -340 -246 -62 -59 -85 -77 -81 -60 4 13 10 75 13 139 8 140 -8 338 -42
509 -40 202 -96 454 -103 461 -3 4 -55 -11 -114 -32z m-3862 -174 c52 -37 205
-182 205 -195 0 -4 13 -24 30 -45 16 -20 46 -71 67 -113 34 -71 37 -84 39
-175 1 -54 -1 -95 -4 -92 -3 3 -20 -26 -38 -64 -18 -38 -42 -79 -54 -91 -11
-11 -25 -31 -29 -43 -7 -18 -10 -13 -15 28 -12 96 -37 218 -48 239 -10 18 -15
5 -32 -88 l-21 -109 -44 59 c-24 32 -46 61 -48 64 -2 2 -9 -2 -14 -10 -11 -17
-3 -109 11 -126 5 -6 21 -40 34 -76 l25 -65 -29 6 c-29 6 -60 29 -93 70 -14
18 -21 20 -38 11 -19 -10 -20 -10 -10 9 8 13 8 22 1 26 -6 4 -9 1 -8 -7 2 -7
-3 -12 -9 -11 -16 4 -16 -2 -2 -30 10 -22 10 -22 -6 -2 -10 12 -14 30 -10 45
4 16 2 20 -3 12 -12 -18 -22 -3 -52 73 -20 50 -24 81 -26 193 -2 82 0 130 6
127 5 -3 7 1 4 9 -3 8 1 28 10 43 8 15 20 57 25 93 10 61 103 270 121 270 3 0
28 -16 55 -35z m1091 -88 c39 -26 100 -75 135 -108 35 -34 53 -53 39 -43 -13
11 -31 26 -38 34 -11 13 -12 12 -3 -5 5 -11 21 -31 36 -45 20 -19 28 -22 34
-11 6 9 11 10 15 2 4 -6 2 -11 -4 -11 -7 0 17 -33 53 -72 35 -40 82 -100 103
-133 44 -67 80 -140 64 -130 -5 3 -10 0 -11 -7 0 -7 -6 0 -13 16 -9 18 -16 25
-20 17 -5 -7 -16 1 -32 24 -13 20 -24 40 -24 44 0 5 -6 11 -13 14 -9 3 -1 -25
20 -79 18 -46 33 -91 33 -100 0 -18 -31 -74 -40 -74 -14 0 4 -65 21 -80 26
-21 30 -83 7 -88 -13 -2 -18 3 -18 18 0 41 -32 145 -66 215 -56 115 -160 242
-269 328 l-50 40 -3 -27 c-2 -15 6 -39 19 -59 14 -19 17 -27 7 -19 -36 29 -51
-56 -22 -124 21 -50 28 -122 13 -140 -9 -11 -8 -14 5 -14 14 0 15 -3 5 -22
l-11 -21 -15 24 -14 24 7 -25 c9 -35 56 -132 109 -225 43 -77 45 -83 45 -165
0 -93 2 -87 -94 -219 l-40 -54 -23 29 c-40 50 -101 177 -123 256 -42 155 -44
412 -5 644 20 114 96 426 104 422 3 -2 38 -24 77 -51z m299 -257 c10 -11 16
-20 13 -20 -3 0 -13 9 -23 20 -10 11 -16 20 -13 20 3 0 13 -9 23 -20z m4007
-230 c477 -82 867 -404 996 -822 23 -74 47 -220 39 -240 -3 -7 -6 -3 -6 9 -3
65 -159 404 -161 347 0 -5 4 -14 9 -20 15 -15 99 -272 122 -374 30 -136 24
-322 -16 -430 -60 -165 -173 -299 -322 -380 -41 -23 -77 -40 -79 -38 -2 2 24
24 58 48 111 81 230 229 273 341 89 225 67 563 -50 778 -30 54 -114 153 -115
134 0 -6 18 -57 39 -112 95 -244 104 -455 29 -671 -40 -115 -82 -185 -146
-247 -53 -52 -87 -69 -76 -38 5 11 2 14 -12 8 -11 -3 6 20 37 53 64 68 119
146 119 168 0 8 4 17 9 20 5 4 15 37 21 75 22 122 -11 212 -114 309 -78 72
-131 106 -68 42 72 -73 112 -174 111 -280 l-1 -55 -17 65 c-57 218 -289 355
-571 337 -185 -12 -400 -114 -537 -254 -60 -61 -153 -248 -218 -438 -30 -89
-68 -172 -72 -159 -1 5 -11 47 -22 94 -42 179 -13 -10 48 -310 85 -419 103
-563 105 -835 1 -196 -2 -234 -24 -350 l-25 -130 -7 84 c-14 173 -87 404 -186
596 l-47 90 5 115 c8 185 5 279 -9 368 -8 45 -15 81 -17 80 -1 -2 -6 -42 -9
-88 -12 -162 -51 -267 -105 -290 -17 -7 -32 -11 -34 -9 -6 9 -82 290 -148 549
-60 237 -68 279 -59 306 15 41 14 57 -6 138 -13 55 -14 74 -5 100 7 18 12 71
12 119 0 104 19 198 60 303 29 72 97 208 133 266 8 13 13 31 12 41 -2 9 1 15
6 11 5 -3 7 -11 3 -17 -3 -7 2 -3 10 8 9 10 15 24 13 29 -2 6 8 21 22 34 14
13 20 21 14 17 -20 -10 -15 4 10 28 12 12 33 35 47 51 22 25 22 27 5 18 -12
-6 -78 -70 -148 -143 -70 -73 -127 -127 -127 -120 0 37 74 148 156 232 41 44
50 58 38 63 -8 3 -13 2 -10 -3 9 -14 -30 -42 -47 -35 -10 3 -14 11 -10 18 8
12 -28 -13 -39 -29 -4 -5 -4 -13 -1 -19 4 -5 1 -6 -6 -2 -15 10 -53 -23 -44
-38 3 -6 2 -8 -2 -3 -5 4 -17 0 -27 -10 -20 -18 -25 -38 -6 -27 7 4 8 3 4 -5
-4 -6 -11 -9 -15 -7 -21 13 -197 -234 -252 -354 l-16 -35 -12 42 c-14 51 -22
35 115 244 205 313 424 493 726 594 57 19 140 41 184 49 118 21 320 20 456 -4z
m-4272 -78 c0 -16 -6 -36 -13 -45 -10 -15 -12 -11 -9 28 4 49 22 63 22 17z
m-783 -24 c-3 -7 -5 -2 -5 12 0 14 2 19 5 13 2 -7 2 -19 0 -25z m919 -70 c20
-38 17 -48 -5 -13 -10 17 -21 44 -25 60 -5 29 -5 29 5 5 6 -14 17 -37 25 -52z
m-164 -12 c2 -19 0 -32 -4 -30 -4 3 -8 12 -8 20 0 8 -4 12 -10 9 -14 -9 -13 8
2 23 16 16 15 17 20 -22z m143 -16 c3 -5 1 -10 -4 -10 -6 0 -11 5 -11 10 0 6
2 10 4 10 3 0 8 -4 11 -10z m-40 -10 c-3 -5 -12 -10 -18 -10 -7 0 -6 4 3 10
19 12 23 12 15 0z m-24 -32 c11 -21 11 -22 -4 -9 -10 7 -17 17 -17 22 0 15 9
10 21 -13z m-33 -24 c-4 -3 -12 5 -18 18 -12 22 -12 22 6 6 10 -10 15 -20 12
-24z m-840 -8 c-1 -14 -5 -23 -9 -20 -7 4 0 44 7 44 2 0 3 -11 2 -24z m-402
-3 c-3 -4 8 -23 26 -42 l33 -36 -37 34 c-32 30 -41 51 -21 51 4 0 3 -3 -1 -7z
m339 -3 c3 -5 -1 -10 -10 -10 -9 0 -13 5 -10 10 3 6 8 10 10 10 2 0 7 -4 10
-10z m929 -16 c3 -8 2 -12 -4 -9 -6 3 -10 10 -10 16 0 14 7 11 14 -7z m146
-36 c23 -89 23 -85 1 -58 -13 16 -18 35 -15 55 3 28 3 28 -5 5 -6 -16 -9 -19
-10 -8 -1 17 8 48 15 48 2 0 8 -19 14 -42z m-1060 -10 c0 -18 -2 -20 -9 -8 -6
8 -7 18 -5 22 9 14 14 9 14 -14z m984 -37 c-5 -6 -33 31 -33 44 -1 6 8 -1 19
-15 10 -14 17 -27 14 -29z m-954 13 c0 -8 -5 -12 -10 -9 -6 4 -8 11 -5 16 9
14 15 11 15 -7z m1795 6 c-11 -5 -27 -9 -35 -9 -9 0 -8 4 5 9 11 5 27 9 35 9
9 0 8 -4 -5 -9z m-746 -89 c-2 -6 -12 4 -22 22 l-18 32 21 -21 c13 -12 21 -27
19 -33z m0 -21 c7 0 9 -5 6 -10 -8 -13 -22 -4 -35 23 -10 20 -10 20 3 5 8 -10
20 -18 26 -18z m-1493 -294 c162 -136 257 -271 314 -450 27 -81 25 -212 -2
-210 -10 1 -26 -20 -43 -55 -16 -33 -46 -72 -74 -95 l-46 -39 -7 120 c-6 118
-32 243 -49 243 -5 0 -9 -31 -9 -69 0 -77 -26 -231 -42 -246 -12 -12 -27 8
-84 114 -53 98 -59 110 -75 145 -12 24 -15 26 -18 10 -2 -10 2 -20 8 -22 6 -2
11 -11 10 -20 0 -11 -2 -12 -6 -4 -2 6 -8 12 -13 12 -15 0 11 -72 62 -173 34
-67 51 -114 54 -150 6 -62 0 -72 -45 -81 -19 -3 -32 -4 -29 -1 3 3 -8 21 -25
40 -17 19 -32 33 -34 31 -6 -5 25 -58 39 -67 10 -7 10 -9 -1 -9 -8 0 -24 8
-35 18 -16 13 -18 13 -8 1 16 -21 4 -31 -20 -18 -11 6 -22 8 -26 5 -3 -3 -1
-6 5 -6 6 0 14 -7 17 -16 11 -29 -14 -3 -55 57 -22 33 -37 64 -33 71 4 6 3 8
-3 5 -13 -8 -23 14 -30 63 -3 19 -10 38 -15 41 -6 4 -14 60 -19 125 -17 225
30 396 174 632 27 45 53 82 56 82 3 0 51 -38 107 -84z m3644 4 c0 -5 -4 -10
-10 -10 -5 0 -10 5 -10 10 0 6 5 10 10 10 6 0 10 -4 10 -10z m-525 -304 c86
-31 137 -68 198 -141 50 -59 107 -165 107 -196 0 -9 7 -33 15 -52 34 -81 7
-279 -53 -392 -37 -69 -154 -184 -223 -217 -258 -125 -535 1 -654 297 -26 63
-29 82 -29 185 0 99 4 126 27 193 59 170 164 282 307 328 85 27 222 25 305 -5z
m-1593 -17 c74 -16 182 -74 242 -132 40 -38 43 -43 15 -22 -76 54 -194 63
-282 21 -105 -49 -176 -131 -217 -251 -28 -80 -24 -114 4 -39 45 121 94 183
188 237 117 68 276 52 360 -37 77 -81 115 -270 84 -416 -33 -156 -124 -280
-252 -345 -53 -27 -68 -30 -154 -30 -91 1 -98 3 -169 40 -140 74 -246 208
-286 360 -19 73 -22 220 -5 300 17 82 44 136 97 196 96 106 230 148 375 118z
m2342 -251 c13 -74 25 -220 27 -323 l1 -109 60 -71 c153 -182 185 -333 102
-490 -21 -38 -49 -86 -64 -105 -37 -49 -46 -65 -31 -55 10 6 11 3 2 -14 -12
-22 -27 -30 -16 -8 4 6 -5 -1 -19 -18 -14 -16 -26 -34 -26 -38 0 -5 -6 -5 -12
-1 -8 5 -7 0 2 -11 14 -17 13 -18 -6 -13 -14 4 -26 -1 -35 -14 -8 -11 -30 -29
-49 -41 -19 -11 -38 -25 -41 -29 -3 -5 -32 -22 -65 -38 l-59 -28 40 5 40 4
-25 -21 c-64 -56 -313 -162 -484 -205 -218 -55 -531 -96 -737 -97 l-156 0 10
-44 c10 -42 12 -43 61 -54 28 -6 74 -13 101 -16 28 -3 88 -12 135 -19 47 -8
135 -19 195 -25 198 -20 349 -41 400 -55 28 -7 73 -20 102 -28 34 -10 55 -11
61 -5 14 14 135 -51 213 -116 113 -93 182 -203 235 -376 38 -125 45 -325 15
-433 -53 -194 -106 -245 -291 -282 -47 -9 -89 -20 -95 -24 -5 -4 -44 -20 -85
-35 -178 -64 -379 -293 -421 -482 l-12 -55 -71 8 c-39 4 -101 7 -138 6 -81 -3
-80 -7 -37 121 111 332 357 538 649 540 63 1 118 -5 163 -17 38 -10 71 -16 73
-14 3 2 -13 26 -34 53 -31 38 -52 54 -100 72 -47 18 -60 27 -57 41 5 29 41 94
77 142 80 107 137 214 138 260 0 30 -28 29 -57 -1 -15 -16 -32 -26 -37 -23 -6
4 -8 3 -4 -1 9 -11 -14 -35 -29 -29 -6 3 -16 -5 -23 -16 -6 -12 -16 -21 -23
-21 -8 0 -7 4 3 11 13 9 13 10 0 6 -8 -2 -14 -11 -12 -19 1 -9 -5 -21 -13 -28
-10 -9 -15 -9 -15 -1 0 6 5 11 12 11 6 0 8 3 5 7 -4 4 -22 -7 -40 -24 -38 -36
-195 -128 -204 -119 -4 3 -2 6 3 6 6 0 19 7 29 15 11 8 48 35 83 61 34 25 62
50 62 54 0 5 11 21 25 36 14 15 23 29 20 32 -2 2 2 16 9 31 14 27 37 101 31
101 -1 0 -17 -21 -33 -47 -36 -56 -122 -141 -172 -171 -19 -11 -81 -32 -138
-46 -57 -14 -121 -36 -143 -49 l-40 -24 25 -20 c14 -11 23 -23 19 -26 -3 -4
10 -2 28 4 19 6 42 13 52 16 37 12 14 -8 -40 -33 -45 -21 -81 -29 -163 -35
-58 -4 -145 -11 -195 -14 -65 -5 -110 -3 -163 9 -69 14 -109 36 -94 50 3 4 -1
4 -11 0 -28 -10 -20 17 15 53 l32 33 -34 -10 c-42 -12 -47 -7 -26 25 24 36 48
43 125 32 36 -5 107 -7 157 -5 84 4 98 7 188 51 159 77 260 195 301 354 20 78
19 84 -10 38 -13 -22 -25 -33 -25 -25 0 8 -14 -10 -32 -40 -40 -70 -178 -207
-243 -241 -57 -30 -145 -55 -167 -47 -16 6 -20 17 -179 408 -61 151 -126 306
-145 344 -18 38 -30 74 -27 79 3 6 2 7 -4 4 -6 -4 -27 3 -49 13 -21 11 -47 20
-59 20 -50 0 -65 11 -65 46 0 30 -4 34 -37 43 -21 5 -58 12 -83 16 -89 13
-296 64 -362 89 -233 88 -407 235 -496 419 -66 137 -76 183 -76 344 0 78 3
145 6 148 3 4 27 -16 53 -44 126 -135 321 -204 488 -172 229 43 434 286 454
538 l6 71 54 21 c65 25 101 25 168 2 l50 -18 13 -77 c40 -242 218 -459 431
-527 92 -29 228 -36 311 -15 219 55 386 223 459 461 18 57 22 97 23 215 1 80
-2 155 -6 168 -7 20 -4 22 33 22 28 0 48 7 68 25 25 22 37 24 109 25 l82 0 6
-32z m1989 15 c3 -5 -27 -8 -66 -8 -60 -1 -81 -6 -126 -30 -231 -126 -377
-477 -357 -860 6 -118 22 -234 25 -178 1 12 5 24 10 27 24 15 29 -346 6 -480
-15 -87 -83 -254 -103 -254 -5 0 -3 34 4 77 28 159 37 324 25 467 -6 75 -16
146 -21 158 -8 20 -9 21 -9 3 -1 -28 -44 -135 -55 -135 -5 0 -6 21 -2 48 3 26
10 110 16 187 32 452 97 656 263 832 103 110 189 152 309 153 42 0 79 -3 81
-7z m-3571 -80 c59 -22 66 -29 60 -59 -4 -23 -8 -25 -36 -19 -75 16 -127 16
-179 1 -30 -9 -58 -16 -61 -16 -7 0 -20 70 -13 76 3 3 23 12 44 19 52 19 134
18 185 -2z m-1359 -195 c4 -40 16 -109 28 -153 27 -97 28 -118 5 -220 -28
-123 -26 -291 4 -408 6 -23 25 -77 42 -120 112 -283 392 -496 768 -582 l65
-15 -115 5 c-468 20 -768 30 -846 28 -111 -1 -162 -23 -188 -78 -16 -34 -16
-39 0 -88 17 -50 158 -367 203 -455 l22 -42 -25 -33 c-26 -34 -45 -99 -46
-154 0 -54 -27 -40 -61 31 -17 35 -53 90 -79 122 -89 106 -109 140 -166 280
-57 142 -80 187 -143 284 l-36 55 1 210 c1 115 7 254 13 308 39 317 174 645
372 908 64 84 157 189 169 189 4 0 10 -33 13 -72z m-916 -160 c-2 -13 -4 -3
-4 22 0 25 2 35 4 23 2 -13 2 -33 0 -45z m6123 29 c0 -2 -10 -12 -22 -23 -14
-12 -18 -13 -10 -3 6 9 9 19 5 22 -3 4 1 7 10 7 10 0 17 -2 17 -3z m-5880 -31
c0 -3 -4 -8 -10 -11 -5 -3 -10 -1 -10 4 0 6 5 11 10 11 6 0 10 -2 10 -4z m-37
-77 c4 -16 3 -18 -9 -8 -7 6 -11 15 -8 20 8 13 11 11 17 -12z m5276 -14 c32
-48 129 -119 194 -144 72 -26 205 -53 228 -46 33 11 21 -11 -26 -47 -177 -139
-301 -315 -380 -543 l-24 -70 0 76 c-1 42 -15 170 -32 285 -24 163 -30 227
-25 289 8 98 29 235 36 235 3 0 16 -16 29 -35z m1301 -52 c-1 -16 2 -89 6
-163 8 -154 -6 -306 -38 -409 -85 -279 -252 -442 -533 -520 -63 -17 -196 -37
-169 -25 6 2 41 34 79 69 37 36 72 65 77 65 4 0 17 9 28 20 l20 20 -20 0 c-11
0 -20 7 -20 16 0 8 4 13 10 9 5 -3 18 3 29 14 25 25 19 29 -49 29 -38 0 -49
-3 -35 -8 21 -9 -133 -2 -198 9 -37 6 -37 6 -21 29 31 45 163 148 258 202 98
55 116 71 71 62 -13 -2 -36 -1 -51 2 -21 6 -24 9 -14 21 24 28 -10 16 -104
-37 -50 -28 -122 -76 -159 -106 l-69 -54 7 48 c10 78 87 296 117 331 6 7 9 16
6 19 -9 8 -98 -95 -146 -169 -52 -81 -80 -155 -89 -237 l-6 -60 -56 -21 c-31
-11 -77 -23 -103 -26 l-48 -6 14 44 c77 243 187 405 380 554 66 51 384 214
467 240 54 17 294 62 337 64 18 1 22 -4 22 -26z m-6610 7 c0 -5 -5 -10 -11
-10 -5 0 -7 5 -4 10 3 6 8 10 11 10 2 0 4 -4 4 -10z m-1136 -35 c218 -44 360
-90 494 -161 147 -76 210 -123 312 -230 105 -111 192 -251 216 -346 l6 -28
-126 0 -126 0 0 34 c0 43 -40 163 -73 218 -14 24 -45 63 -67 88 -23 25 -35 34
-27 20 29 -50 78 -211 84 -277 l6 -67 -44 36 c-63 51 -260 168 -284 168 -3 0
-1 -9 5 -21 14 -26 11 -29 -29 -32 -17 -1 -31 -3 -31 -4 0 0 44 -28 98 -61 94
-59 213 -156 232 -192 8 -15 5 -16 -17 -12 -18 3 -24 1 -19 -6 5 -8 -6 -10
-36 -7 -68 7 -245 14 -223 8 28 -7 43 -23 22 -23 -15 0 -15 -3 -5 -22 7 -12
24 -31 38 -43 47 -38 117 -110 123 -126 5 -14 0 -15 -41 -7 -243 49 -410 160
-511 340 -42 75 -88 210 -107 317 -17 99 -18 461 -1 461 5 0 64 -11 131 -25z
m5570 -681 c18 -18 18 -17 10 -38 -9 -23 -41 -20 -54 5 -9 15 -8 24 1 35 15
18 24 18 43 -2z m790 -386 c12 -178 3 -346 -24 -448 -8 -31 -16 -39 -42 -44
-40 -8 -50 6 -44 59 3 22 15 111 26 198 11 86 29 185 40 220 11 34 20 72 20
85 0 12 4 22 9 22 4 0 11 -41 15 -92z m-5564 0 c0 -5 -4 -8 -10 -8 -5 0 -10
10 -10 23 0 18 2 19 10 7 5 -8 10 -18 10 -22z m5861 -89 c65 -22 64 -24 -54
-140 -62 -60 -113 -109 -114 -109 -5 0 -3 118 3 178 6 54 10 62 33 71 36 13
92 13 132 0z m-5581 -31 c78 -39 171 -130 223 -218 51 -89 50 -94 -21 -87 -79
7 -113 27 -223 130 -90 84 -112 119 -36 56 20 -17 35 -24 32 -17 -7 16 -70 62
-144 105 l-55 32 34 15 c58 25 119 20 190 -16z m1125 -33 c55 -2 278 -9 495
-15 217 -6 412 -16 433 -21 43 -11 49 -22 130 -219 184 -451 234 -580 228
-580 -25 0 -51 50 -137 262 -111 274 -196 472 -208 484 -11 11 -152 18 -876
44 -424 15 -480 16 -480 9 0 -3 15 -6 32 -7 18 0 34 -6 36 -11 2 -6 12 -11 23
-11 10 0 19 -7 19 -15 0 -8 9 -15 20 -15 30 0 24 -17 -10 -29 -24 -8 -30 -16
-30 -37 0 -35 146 -367 176 -399 33 -36 78 -44 341 -62 144 -10 238 -20 230
-26 -7 -4 24 -6 73 -3 56 4 78 3 65 -3 -11 -5 -15 -10 -10 -11 6 -1 1 -5 -10
-10 -18 -8 -17 -9 7 -9 14 -1 28 3 30 9 2 5 14 11 28 12 23 3 25 -1 28 -43 l3
-46 -105 4 -105 5 -31 -33 c-16 -18 -30 -28 -30 -22 0 6 6 13 13 16 6 2 9 7 6
11 -4 4 -14 0 -23 -9 -9 -9 -16 -12 -16 -6 0 6 -9 20 -20 31 -21 21 -35 27
-25 10 9 -15 -11 -12 -24 4 -7 8 -56 18 -136 26 -112 11 -128 10 -150 -4 -34
-22 -32 -48 10 -152 36 -88 38 -107 10 -84 -13 11 -15 8 -15 -20 0 -43 -12
-31 -16 16 -2 19 -12 60 -24 91 -11 30 -18 59 -15 64 4 5 1 9 -5 9 -7 0 -10 7
-6 15 3 8 1 15 -5 15 -6 0 -7 5 -4 10 3 6 1 10 -4 10 -6 0 -11 6 -11 13 0 8
-22 39 -48 69 -50 57 -115 175 -197 358 -26 58 -65 142 -86 187 -21 46 -39 87
-39 92 0 6 10 17 23 26 23 17 42 17 442 0z m4865 -22 c78 -34 130 -71 124 -88
-4 -8 -12 -15 -19 -15 -7 0 -30 -21 -51 -46 -78 -91 -235 -174 -331 -174 -35
0 -45 17 -15 26 79 24 162 95 162 139 0 14 -2 25 -5 25 -3 0 -29 -12 -58 -27
-46 -24 -65 -28 -160 -30 -129 -3 -129 -2 -12 102 97 87 165 117 255 112 36
-2 86 -13 110 -24z m-6257 -16 c15 -3 45 -18 65 -34 42 -34 157 -171 149 -179
-10 -10 -134 -7 -189 5 -38 8 -75 26 -110 51 -28 22 -56 36 -62 33 -6 -4 -6
-8 2 -11 7 -2 10 -7 7 -11 -11 -18 67 -89 134 -122 41 -20 68 -39 66 -46 -3
-9 6 -13 25 -13 17 0 30 -4 30 -10 0 -12 -44 -12 -80 0 -22 7 -22 8 -5 10 11
2 -5 6 -35 10 -30 4 -77 18 -105 31 -27 13 -54 25 -60 28 -5 2 -1 -6 10 -19
19 -22 18 -21 -22 4 -24 14 -46 26 -50 26 -11 0 -63 52 -63 63 0 5 6 4 14 -2
22 -18 28 14 7 33 -19 17 -32 21 -30 9 4 -24 -4 -34 -10 -13 -4 14 -3 28 2 31
14 10 -1 29 -24 29 -44 0 -12 33 76 80 57 31 64 32 145 26 47 -3 98 -7 113 -9z
m-918 -87 c-2 -3 11 -4 29 -2 49 6 183 -34 263 -78 132 -73 212 -164 233 -263
4 -23 11 -53 15 -67 7 -31 -4 -132 -14 -125 -5 2 -6 -8 -4 -23 3 -16 -17 12
-50 68 -63 109 -125 179 -215 244 -34 25 -64 46 -66 46 -2 0 5 -18 16 -39 15
-31 17 -44 8 -60 -9 -18 -8 -21 8 -21 45 0 186 -219 155 -239 -6 -3 -13 -13
-16 -21 -2 -8 -3 -3 -1 11 3 26 1 26 -70 32 -65 6 -137 28 -188 57 -10 5 -24
7 -33 4 -17 -7 -21 -24 -5 -24 6 0 10 5 10 11 0 5 5 7 10 4 16 -10 12 -21 -9
-22 -11 -1 -27 7 -37 18 -15 16 -15 19 -2 14 24 -10 34 16 12 32 -10 7 -27 20
-37 29 -18 14 -18 14 -12 -8 10 -35 -42 43 -65 97 -29 69 -53 215 -37 234 9
11 9 13 0 8 -7 -5 -12 -1 -11 10 0 10 -3 33 -7 51 l-8 33 66 -3 c36 -1 64 -5
62 -8z m7981 -62 c-4 -29 -8 -62 -8 -73 -1 -11 -5 -22 -9 -25 -4 -3 -12 -34
-18 -69 -6 -35 -20 -82 -32 -105 -26 -50 -65 -97 -73 -89 -3 4 -6 1 -6 -6 0
-8 -13 -12 -37 -10 -27 2 -37 -1 -35 -10 2 -8 -3 -11 -11 -8 -7 3 -36 -6 -64
-18 -27 -13 -68 -28 -89 -34 -44 -12 -134 -21 -134 -13 0 9 76 108 119 155 33
35 51 47 75 48 17 1 24 3 15 6 -12 3 -16 14 -15 36 2 46 -23 45 -91 -1 -55
-38 -173 -157 -215 -219 -15 -22 -18 -24 -13 -6 5 18 3 20 -16 16 -20 -6 -21
-3 -15 48 3 30 6 64 6 77 0 13 5 20 10 17 6 -3 10 -1 10 5 0 6 3 9 8 6 4 -2 6
12 4 33 -7 67 95 172 223 231 52 24 82 32 190 54 11 2 67 4 124 5 l104 1 -7
-52z m-724 10 c-7 -7 -12 -8 -12 -2 0 14 12 26 19 19 2 -3 -1 -11 -7 -17z
m-4882 -18 c140 -6 341 -15 445 -21 208 -12 211 -13 245 -79 27 -54 121 -303
115 -308 -2 -2 -102 3 -222 11 -120 9 -328 24 -463 33 -135 9 -256 22 -270 28
-14 6 -36 33 -50 61 -66 131 -130 276 -126 283 3 5 20 7 38 5 18 -1 148 -7
288 -13z m2646 -147 c-6 -6 -36 52 -36 69 1 7 10 -4 21 -25 11 -22 18 -41 15
-44z m-4109 -29 c-3 -3 -12 -4 -19 -1 -8 3 -5 6 6 6 11 1 17 -2 13 -5z m5552
-47 c95 -7 268 -48 352 -82 98 -39 159 -108 159 -177 0 -37 -29 -107 -51 -125
-32 -26 -180 -77 -281 -97 -70 -13 -108 -25 -108 -33 0 -17 -37 -17 -43 0 -3
10 -9 10 -26 0 -11 -7 -27 -13 -35 -13 -11 0 -13 -7 -7 -27 16 -56 6 -62 -103
-60 -69 1 -101 6 -104 15 -2 6 -12 12 -23 12 -33 0 -139 77 -139 100 0 5 -7 6
-17 3 -11 -4 -14 -3 -9 5 4 7 2 12 -4 12 -7 0 -9 7 -6 16 4 10 -5 26 -22 44
l-29 28 45 7 44 7 -35 23 c-33 23 -77 94 -77 126 0 8 7 24 15 35 29 38 14 35
-18 -4 -26 -31 -37 -38 -50 -30 -23 12 -21 25 9 66 57 74 196 132 360 150 63
7 92 15 99 26 9 15 11 14 18 -2 7 -16 24 -20 86 -25z m-1422 1 c-3 -7 -5 -2
-5 12 0 14 2 19 5 13 2 -7 2 -19 0 -25z m-3512 -162 c98 -26 204 -85 236 -130
16 -21 29 -48 29 -60 -1 -20 -2 -19 -15 4 -8 14 -14 21 -15 16 0 -6 -16 6 -36
25 -19 18 -38 33 -42 33 -4 -1 -16 2 -27 6 -60 22 -67 20 -24 -8 76 -49 100
-100 58 -123 -13 -6 -19 -7 -15 -1 6 11 -43 76 -51 68 -3 -2 3 -16 12 -30 32
-48 12 -69 -107 -105 -75 -23 -216 -94 -282 -142 -25 -17 -59 -54 -78 -83
l-33 -51 -4 40 -4 40 -12 -40 c-9 -32 -17 -40 -35 -40 -17 0 -26 7 -31 25 l-7
25 -1 -27 c-1 -34 -6 -34 -73 -4 -72 32 -134 79 -153 116 -24 46 -26 244 -3
286 36 65 162 134 305 165 108 23 314 21 408 -5z m6249 -22 c-9 -13 -20 -21
-26 -18 -5 3 -3 13 6 23 9 10 13 21 9 25 -4 4 0 4 9 1 16 -6 16 -9 2 -31z
m-49 -14 c-3 -5 -11 -10 -16 -10 -6 0 -7 5 -4 10 3 6 11 10 16 10 6 0 7 -4 4
-10z m-35 -20 c0 -5 -2 -10 -4 -10 -3 0 -8 5 -11 10 -3 6 -1 10 4 10 6 0 11
-4 11 -10z m-73 -16 c-3 -3 -12 -4 -19 -1 -8 3 -5 6 6 6 11 1 17 -2 13 -5z
m-4614 -11 c-7 -2 -21 -2 -30 0 -10 3 -4 5 12 5 17 0 24 -2 18 -5z m-945 -18
c57 -31 59 -33 37 -49 -14 -10 -24 -11 -32 -4 -26 22 -12 -9 17 -37 22 -21 27
-32 19 -41 -8 -9 -5 -11 10 -7 12 3 21 1 21 -6 0 -12 -1 -12 -38 -16 -18 -2
-22 2 -17 14 5 14 4 14 -11 -1 -16 -15 -16 -18 4 -44 17 -25 26 -28 68 -27 27
1 41 -1 32 -3 -10 -3 -15 -11 -11 -20 3 -8 2 -14 -3 -13 -14 2 -54 -13 -54
-20 1 -16 17 -29 40 -32 31 -5 39 -35 10 -44 -13 -4 -33 1 -53 12 -86 50 -143
248 -96 334 12 23 22 24 57 4z m-1813 -5 c3 -6 -1 -7 -9 -4 -18 7 -21 14 -7
14 6 0 13 -4 16 -10z m2750 -70 c3 -5 2 -10 -4 -10 -5 0 -13 5 -16 10 -3 6 -2
10 4 10 5 0 13 -4 16 -10z m-374 -37 c-9 -16 -10 -14 -11 12 0 21 3 26 11 18
8 -8 8 -16 0 -30z m-88 11 c9 -3 17 -10 17 -15 0 -10 -182 -11 -207 -2 -7 3
-13 12 -13 20 0 13 14 14 93 8 50 -3 100 -9 110 -11z m402 -34 c14 -6 28 -33
49 -96 16 -49 30 -94 33 -99 4 -12 -187 0 -197 12 -7 8 -70 184 -70 194 0 8
160 -2 185 -11z m423 -29 c38 -1 41 -11 7 -32 -22 -13 -35 -13 -115 0 -68 12
-90 19 -90 31 0 13 12 14 83 8 45 -3 97 -7 115 -7z m-691 -83 c-3 -8 -6 -5 -6
6 -1 11 2 17 5 13 3 -3 4 -12 1 -19z m-738 -26 c27 -54 101 -119 150 -132 39
-10 44 -16 76 -85 19 -41 35 -80 35 -87 -1 -29 -182 -92 -325 -113 l-90 -14
128 2 129 2 -39 -17 c-21 -10 -57 -23 -80 -29 -24 -6 -43 -14 -43 -18 0 -17
-72 -46 -140 -56 l-74 -10 -3 -35 c-1 -19 -5 -59 -8 -88 -6 -50 -8 -53 -33
-50 -15 2 -28 9 -28 16 -4 32 -7 35 -13 12 -6 -19 -13 -24 -32 -22 -13 1 -25
7 -27 12 -2 6 -14 7 -28 4 -29 -7 -147 45 -165 74 -7 11 -18 18 -24 16 -6 -3
-22 4 -35 14 -23 18 -24 28 -32 177 -7 143 -6 162 11 200 22 49 47 75 119 122
90 58 227 97 437 123 49 6 92 13 94 16 11 11 22 1 40 -34z m4531 -49 c0 -13
-6 -23 -13 -23 -9 0 -12 11 -9 36 5 39 22 29 22 -13z m70 12 c0 -33 -15 -33
-16 0 -1 14 2 25 7 25 5 0 9 -11 9 -25z m-3975 -50 c70 -6 94 -15 95 -35 0
-10 -204 10 -217 22 -22 18 -15 30 15 24 15 -2 63 -8 107 -11z m481 -37 c6 -7
63 -192 60 -196 -2 -2 -46 0 -98 5 l-93 8 -31 82 c-17 46 -33 86 -37 90 -4 3
-7 11 -7 17 0 8 29 9 101 4 56 -4 103 -9 105 -10z m3042 -9 c91 -18 162 -49
205 -88 53 -47 69 -87 56 -134 -9 -32 -57 -85 -80 -88 -18 -3 -25 -5 -74 -31
-27 -14 -79 -37 -115 -51 -36 -14 -72 -28 -80 -31 -26 -10 93 5 147 19 43 11
95 31 135 52 4 2 5 -2 2 -10 -12 -31 -163 -86 -296 -108 -43 -7 -78 -17 -78
-21 0 -4 4 -8 8 -8 11 0 15 -103 7 -142 -6 -27 -38 -41 -34 -15 1 6 1 47 0 90
l-1 77 -32 0 c-25 0 -29 -3 -20 -12 7 -7 12 -44 12 -96 0 -80 -1 -83 -22 -80
-20 3 -22 9 -23 68 -3 137 -33 151 -37 18 l-3 -93 -38 -3 c-31 -3 -39 1 -46
20 -8 20 -10 21 -16 6 -4 -10 -18 -18 -31 -18 -16 0 -24 6 -25 18 0 10 -3 12
-6 5 -2 -7 -13 -13 -24 -13 -22 0 -32 22 -57 118 -14 51 -23 66 -47 80 -16 9
-32 18 -34 19 -2 1 -5 14 -7 29 -3 35 -25 56 -93 93 -33 17 -62 38 -65 47 -13
35 -5 82 22 125 44 68 175 132 332 160 152 27 323 26 458 -2z m462 4 c-19 -13
-20 -21 -14 -69 8 -67 -1 -104 -24 -104 -17 0 -18 8 -14 85 l5 85 -32 0 c-24
0 -31 -4 -31 -19 0 -10 -9 -21 -20 -24 l-20 -5 20 -52 c11 -29 19 -55 16 -57
-2 -3 -20 20 -39 50 -20 30 -51 67 -71 83 -19 15 -33 31 -31 34 2 3 65 7 140
7 122 0 134 -1 115 -14z m-2136 -15 c-7 -19 -9 -39 -9 -79 0 0 -22 -3 -50 -6
-69 -7 -205 -48 -268 -79 -52 -26 -156 -99 -169 -118 -4 -6 -9 -8 -12 -6 -6 7
-46 109 -46 119 0 4 35 11 78 14 102 8 243 55 367 122 55 30 104 54 108 55 5
0 5 -10 1 -22z m-1077 -21 c17 -18 61 -47 97 -63 61 -27 67 -32 79 -74 8 -25
12 -47 11 -48 -1 -2 -47 -1 -102 3 -80 6 -101 11 -105 24 -3 9 -17 45 -30 81
-42 113 -42 110 -10 110 19 0 39 -11 60 -33z m-1117 13 c0 -5 -4 -10 -10 -10
-5 0 -10 5 -10 10 0 6 5 10 10 10 6 0 10 -4 10 -10z m-1337 -41 c40 -29 158
-74 220 -84 49 -8 48 -25 -3 -25 l-40 0 0 -45 c0 -38 -3 -45 -20 -45 -32 0
-142 55 -177 88 -28 26 -33 38 -33 76 0 24 -3 52 -7 62 -7 20 -2 17 60 -27z
m6656 -21 c41 -17 181 -121 181 -134 0 -17 -37 -65 -55 -70 -11 -4 -60 -25
-110 -48 -89 -40 -91 -41 -205 -40 -101 0 -119 3 -150 22 -19 12 -44 22 -55
22 -19 1 -19 2 3 20 48 40 132 64 225 63 83 0 86 1 72 18 -17 17 -76 34 -107
30 -12 -2 -18 5 -18 19 0 18 -4 21 -22 17 -13 -3 -41 -9 -63 -12 -22 -4 -65
-20 -96 -35 l-56 -28 2 34 c1 39 34 72 110 109 93 46 253 52 344 13z m-7021
-3 c71 -17 145 -52 191 -91 36 -30 29 -54 -9 -34 -18 10 -21 10 -14 -2 8 -13
10 -18 12 -50 1 -10 9 -18 17 -18 13 0 13 -3 3 -14 -11 -11 -18 -10 -48 4 -54
27 -167 70 -184 70 -9 0 -16 -7 -16 -15 0 -11 -12 -15 -49 -15 -27 0 -56 -3
-65 -6 -31 -12 -15 -24 32 -24 37 0 70 -11 139 -44 97 -48 113 -60 85 -71
-116 -45 -283 -2 -383 98 -29 30 -42 37 -52 29 -10 -8 -16 -5 -27 11 -12 20
-12 21 3 9 8 -7 18 -9 21 -4 6 9 -35 48 -46 44 -15 -4 -8 25 10 40 28 26 119
77 154 87 50 14 156 12 226 -4z m3274 -176 c21 -52 37 -105 37 -119 -1 -23 -2
-22 -16 10 -39 89 -80 211 -70 207 7 -2 29 -46 49 -98z m-2857 -17 c22 -11 72
-30 110 -42 103 -33 104 -33 55 -39 l-45 -6 -3 -57 c-2 -32 -7 -58 -11 -58
-20 0 -119 47 -156 73 -44 31 -52 52 -54 140 l-1 58 33 -24 c17 -14 50 -34 72
-45z m2119 35 l79 -12 30 -88 c16 -49 27 -89 26 -91 -2 -1 -45 0 -96 2 l-92 4
-39 99 -39 99 26 -1 c14 0 62 -6 105 -12z m3505 6 c-17 -4 -29 -60 -29 -139 0
-37 -3 -44 -19 -44 -26 0 -29 14 -21 95 8 80 2 94 -35 77 -32 -15 -32 -15 -32
3 0 12 15 15 76 14 42 -1 69 -3 60 -6z m-4381 -18 c-2 -1 -21 -5 -43 -9 -38
-6 -39 -6 -15 7 14 7 33 11 43 9 10 -3 16 -6 15 -7z m1324 -21 l47 -6 51 -154
c29 -86 50 -158 47 -160 -3 -3 -46 -2 -97 2 -107 8 -95 -5 -159 177 -22 65
-46 128 -52 139 -12 22 -8 22 163 2z m4142 -38 c-3 -8 -13 -17 -22 -21 -13 -5
-13 -2 3 15 21 24 26 25 19 6z m-7409 -26 c3 -6 -1 -7 -9 -4 -18 7 -21 14 -7
14 6 0 13 -4 16 -10z m2435 -20 c212 -61 298 -161 246 -283 -34 -80 -193 -164
-365 -192 l-43 -7 4 -74 c3 -66 1 -74 -14 -74 -10 0 -18 5 -18 10 0 6 5 10 10
10 6 0 10 5 10 11 0 5 -4 8 -9 4 -6 -3 -11 17 -13 47 -3 46 -6 53 -25 56 -22
3 -23 0 -23 -72 0 -74 -1 -76 -25 -76 -24 0 -25 2 -25 75 0 99 -18 97 -22 -2
l-3 -78 -37 -3 c-34 -3 -38 -1 -38 20 l0 23 -18 -23 c-16 -21 -20 -22 -92 -12
-82 10 -157 33 -207 63 -29 17 -33 24 -33 62 0 24 -4 47 -10 50 -6 4 -7 -11
-4 -39 8 -54 -3 -59 -39 -17 -21 26 -24 41 -30 153 -4 75 -2 139 4 161 26 96
174 186 364 223 107 21 359 12 455 -16z m2350 -15 c268 -30 398 -144 331 -291
-31 -68 -119 -116 -281 -154 -52 -13 -101 -24 -108 -26 -9 -3 -11 -21 -6 -74
6 -61 5 -70 -9 -70 -14 0 -16 10 -12 65 5 63 5 65 -19 65 -29 0 -37 -24 -29
-90 5 -42 3 -48 -15 -52 -29 -8 -32 -2 -32 58 0 56 -7 84 -21 84 -5 0 -9 -34
-9 -75 l0 -75 -45 0 -45 0 -2 63 -1 62 -6 -60 -6 -60 -55 3 c-30 2 -82 10
-115 19 -65 17 -192 82 -217 110 -22 25 -31 233 -13 287 19 54 67 100 149 140
92 45 184 67 321 76 110 7 141 6 245 -5z m-4610 -45 c13 -9 13 -10 0 -10 -8 0
-22 5 -30 10 -13 9 -13 10 0 10 8 0 22 -5 30 -10z m485 -55 c57 -34 193 -85
228 -85 9 0 17 -4 17 -9 0 -6 -21 -11 -47 -13 l-48 -3 -3 -57 c-2 -32 -8 -58
-13 -58 -6 0 -25 11 -42 24 -18 13 -43 27 -57 31 -31 9 -58 33 -75 65 -12 25
-31 140 -22 140 3 0 30 -16 62 -35z m2151 -11 c1 -10 2 -25 3 -31 1 -7 10 -22
21 -33 16 -16 17 -20 5 -20 -14 0 -55 76 -55 102 0 18 25 2 26 -18z m143 12
c-10 -9 -79 -14 -74 -5 4 5 22 9 42 9 20 0 34 -2 32 -4z m3352 -24 c-5 -10 -7
-37 -4 -59 8 -60 -3 -93 -30 -93 -18 0 -19 2 -7 10 8 5 11 10 5 10 -12 0 -7
110 6 126 6 8 -3 10 -31 8 -22 -2 -45 -6 -50 -9 -6 -3 -10 1 -10 9 0 13 13 16
65 16 60 0 65 -2 56 -18z m-3321 -23 c0 -5 -4 -9 -8 -9 -5 0 -9 7 -9 15 0 8 4
12 9 9 4 -3 8 -9 8 -15z m-1872 -68 c64 -32 168 -60 276 -73 105 -12 122 -20
66 -31 -30 -6 -30 -7 -30 -77 l0 -70 -34 0 c-26 0 -35 5 -41 23 l-8 22 -4 -22
c-5 -25 -7 -26 -51 -17 -17 3 -29 11 -28 18 2 6 1 8 -1 4 -9 -16 -40 -7 -110
32 -62 35 -73 45 -74 68 l-1 27 -7 -25 -7 -25 -27 27 c-25 25 -27 33 -27 114
l0 86 35 -31 c20 -17 52 -39 73 -50z m1825 37 c-2 -5 -12 -8 -22 -8 -9 0 -22
-5 -29 -12 -9 -9 -12 -8 -12 4 0 9 -4 18 -10 20 -5 2 10 3 34 3 24 0 42 -3 39
-7z m61 -20 c-4 -6 -10 -5 -15 3 -14 22 -10 33 6 19 8 -7 12 -17 9 -22z m-77
-4 c-3 -3 -12 -4 -19 -1 -8 3 -5 6 6 6 11 1 17 -2 13 -5z m4047 -82 c89 -48
192 -166 211 -244 5 -21 1 -29 -27 -46 -18 -12 -27 -22 -19 -22 8 0 -5 -15
-29 -34 -27 -21 -50 -32 -62 -28 -12 3 -18 0 -16 -8 2 -7 -4 -15 -12 -17 -13
-4 -13 -3 0 7 12 9 8 10 -20 6 -19 -3 -30 -3 -25 2 14 10 12 45 -3 48 -7 1 -8
0 -2 -3 7 -3 5 -12 -6 -24 -21 -24 -44 -25 -43 -1 0 10 3 12 6 5 8 -21 22 -15
16 7 -3 11 -9 17 -14 14 -5 -3 -42 22 -82 56 -40 34 -89 70 -110 80 l-39 18
48 16 c58 20 130 20 164 1 14 -8 29 -14 34 -15 16 0 -48 50 -71 56 -12 3 -25
15 -29 26 -6 19 -12 20 -70 15 -43 -3 -83 -15 -126 -36 -61 -30 -98 -35 -105
-14 -2 6 21 38 52 71 54 58 80 73 170 96 48 12 158 -5 209 -32z m-3957 1 c76
-5 86 -9 123 -41 42 -35 80 -98 80 -129 -1 -12 -6 -9 -17 12 -38 72 -95 103
-214 116 -49 5 -93 8 -97 7 -15 -4 -50 13 -56 27 -6 17 42 19 181 8z m2913
-36 c-34 -18 -134 -37 -184 -36 -40 2 -39 2 14 11 30 5 80 15 110 23 72 17 91
18 60 2z m381 -31 c0 -6 4 -2 9 9 7 17 9 17 9 3 1 -10 9 -18 19 -19 11 -1 8
-4 -8 -8 -19 -5 -26 -15 -30 -40 l-5 -34 -17 36 c-11 22 -25 37 -35 37 -15 0
-16 2 -3 10 12 8 10 10 -10 10 -16 0 -21 3 -13 8 18 11 83 2 84 -12z m-107 -1
c-4 -8 -8 -15 -10 -15 -2 0 -4 7 -4 15 0 8 4 15 10 15 5 0 7 -7 4 -15z m-911
-2 c-13 -2 -33 -2 -45 0 -13 2 -3 4 22 4 25 0 35 -2 23 -4z m395 0 c-10 -2
-28 -2 -40 0 -13 2 -5 4 17 4 22 1 32 -1 23 -4z m-5006 -28 c39 -14 195 -115
178 -115 -3 0 -35 -6 -72 -14 -56 -12 -75 -12 -110 -1 -24 7 -62 16 -85 20
-43 7 -43 7 -43 -24 0 -24 4 -31 19 -31 25 0 86 -26 75 -32 -5 -3 -18 -4 -29
-2 -30 5 -112 -16 -126 -32 -14 -18 -11 -17 41 1 31 11 47 12 62 4 21 -11 22
-8 -36 -82 -22 -27 -35 -54 -32 -62 4 -12 -1 -14 -22 -10 -15 3 -45 8 -67 11
-22 3 -51 11 -65 16 -14 6 -54 20 -90 32 -83 27 -99 52 -68 108 52 92 164 190
256 225 45 17 147 11 214 -12z m4899 16 l-44 -6 2 -72 c2 -63 0 -72 -18 -78
-24 -7 -71 4 -71 17 0 7 -5 6 -13 -1 -8 -6 -34 -10 -58 -8 l-44 3 -1 55 c-1
31 -5 65 -8 77 -7 22 -7 22 146 20 84 0 133 -4 109 -7z m-4424 -102 c70 -33
155 -54 253 -64 70 -8 113 -23 73 -26 -13 -1 -29 -2 -35 -3 -9 -1 -14 -26 -16
-82 -3 -80 -3 -82 -30 -87 -15 -3 -30 -3 -34 0 -5 2 -8 37 -9 76 -1 81 -4 79
-14 -5 -4 -32 -11 -58 -16 -58 -16 0 -138 104 -138 118 -1 7 -5 10 -11 7 -11
-7 -71 22 -82 39 -4 6 -8 7 -8 3 0 -5 -6 -5 -12 0 -7 4 -15 8 -18 8 -3 1 -15
4 -27 9 -21 7 -23 13 -23 88 l0 80 41 -37 c23 -21 71 -51 106 -66z m4455 17
c-5 -76 -27 -75 -36 1 -5 40 -3 59 6 64 23 14 33 -9 30 -65z m88 27 c0 -38
-10 -73 -21 -73 -5 0 -9 23 -9 50 0 38 4 50 15 50 10 0 15 -10 15 -27z m604
-59 c3 -8 2 -12 -4 -9 -6 3 -10 10 -10 16 0 14 7 11 14 -7z m376 -66 c30 -14
75 -43 100 -66 l45 -40 -33 -35 c-19 -19 -39 -34 -46 -33 -15 1 -108 -79 -99
-87 3 -4 22 7 42 23 19 17 40 30 46 30 12 0 -24 -31 -84 -71 -41 -26 -86 -43
-51 -18 12 9 13 12 1 16 -10 4 -10 7 -2 13 7 4 -24 5 -68 2 -69 -4 -84 -2
-115 17 -20 13 -41 19 -48 15 -7 -4 -5 2 6 14 25 29 117 62 171 62 25 0 45 5
45 10 0 6 -3 9 -7 9 -18 -4 -74 15 -84 27 -16 20 -41 17 -105 -11 -61 -27 -79
-31 -69 -15 3 6 -1 7 -9 4 -9 -3 -16 -1 -16 6 0 6 -4 8 -10 5 -5 -3 -10 -1
-10 4 0 24 75 92 133 121 57 29 69 31 137 28 53 -3 92 -12 130 -30z m-2463
-87 c95 -37 224 -54 383 -49 80 3 132 3 115 1 -74 -9 -71 -6 -67 -81 3 -53 1
-71 -12 -81 -22 -18 -30 5 -24 70 3 27 1 52 -5 56 -5 3 -3 9 4 15 10 6 7 8
-11 6 -24 -3 -25 -7 -28 -75 l-3 -72 -74 1 c-60 1 -75 5 -75 17 0 12 -2 12
-12 -2 -12 -14 -19 -15 -77 -2 -35 7 -94 28 -130 47 -63 32 -66 35 -65 68 1
26 0 28 -3 8 -5 -33 -13 -35 -41 -10 -16 13 -22 34 -27 101 l-7 83 53 -40 c30
-22 77 -50 106 -61z m-2466 4 c102 -46 215 -64 414 -67 145 -1 163 -3 95 -8
-47 -3 -71 -8 -55 -9 19 -2 24 -5 13 -8 -17 -4 -25 -46 -18 -92 2 -15 -17 -31
-37 -31 -9 0 -13 18 -13 58 0 31 -5 64 -10 72 -7 10 -10 -7 -10 -57 l0 -73
-39 0 c-41 0 -51 11 -51 56 0 14 -4 22 -10 19 -5 -3 -10 -22 -10 -41 0 -27 -4
-34 -20 -34 -14 0 -20 7 -21 23 l-2 22 -4 -22 c-2 -13 -6 -23 -8 -23 -2 0 -36
7 -76 15 -73 15 -228 84 -250 111 -7 8 -14 52 -17 96 l-5 81 39 -31 c22 -17
64 -43 95 -57z m3773 53 c12 -12 16 -35 16 -87 l0 -71 -29 0 c-16 0 -41 4 -55
9 -17 7 -26 7 -28 -1 -5 -13 -36 -3 -66 22 -15 12 -23 31 -25 57 -1 21 -6 43
-10 50 -9 15 19 24 98 33 77 8 79 7 99 -12z m690 -13 c-9 -14 -19 -23 -22 -20
-5 4 26 45 35 45 2 0 -4 -11 -13 -25z m-5202 -9 c69 -28 149 -86 168 -120 15
-28 8 -45 -12 -29 -7 6 -39 18 -71 28 -73 23 -151 15 -184 -17 l-23 -23 54 -1
c54 0 145 -36 153 -59 8 -25 -58 -46 -174 -54 -141 -10 -150 -7 -247 87 l-66
64 26 33 c33 44 84 83 132 100 61 22 178 18 244 -9z m2629 -2 c52 -8 103 -19
114 -24 11 -4 41 -15 67 -23 101 -33 183 -109 188 -177 9 -112 -18 -143 -197
-221 -33 -15 -48 -26 -40 -31 9 -6 8 -8 -2 -8 -8 0 -12 -2 -10 -5 6 -5 79 19
136 45 24 11 56 34 73 52 l30 31 0 -31 c0 -61 -133 -134 -319 -175 l-96 -21 4
-78 c3 -77 3 -78 -21 -78 -23 0 -24 2 -22 75 l2 75 -31 0 -32 0 0 -82 c0 -82
0 -83 -25 -83 -25 0 -25 1 -25 79 0 54 -4 80 -12 83 -10 4 -13 -16 -13 -76 l0
-81 -54 0 -54 0 1 33 c0 77 -4 107 -14 107 -6 0 -9 -25 -8 -67 l3 -68 -33 -3
c-21 -2 -40 3 -52 14 -11 10 -19 12 -19 6 0 -7 -13 -12 -30 -12 -16 0 -30 4
-30 10 0 5 -6 7 -14 4 -25 -9 -170 25 -186 44 -9 9 -22 18 -30 20 -27 6 -50
35 -50 61 0 14 -4 44 -8 66 -7 40 -7 40 -12 -20 l-5 -60 -18 33 c-14 26 -20
65 -24 171 -6 129 -4 142 16 184 30 61 78 102 175 148 182 87 453 120 677 83z
m2055 -52 c2 -71 -21 -78 -29 -10 -7 54 -2 71 16 65 7 -2 13 -26 13 -55z
m-3056 43 c0 -2 -10 -9 -22 -15 -22 -11 -22 -10 -4 4 21 17 26 19 26 11z
m2970 -55 c0 -53 -2 -60 -20 -60 -18 0 -20 7 -20 60 0 53 2 60 20 60 18 0 20
-7 20 -60z m-570 46 c0 -2 -9 -6 -20 -9 -11 -3 -18 -1 -14 4 5 9 34 13 34 5z
m-2460 -26 c-8 -5 -19 -10 -25 -10 -5 0 -3 5 5 10 8 5 20 10 25 10 6 0 3 -5
-5 -10z m2403 3 c-7 -2 -19 -2 -25 0 -7 3 -2 5 12 5 14 0 19 -2 13 -5z m-2453
-22 c-18 -11 -132 -33 -138 -27 -2 3 13 8 34 11 22 4 53 11 69 15 40 11 53 11
35 1z m2363 2 c-7 -2 -21 -2 -30 0 -10 3 -4 5 12 5 17 0 24 -2 18 -5z m-76 -9
c-3 -3 -12 -4 -19 -1 -8 3 -5 6 6 6 11 1 17 -2 13 -5z m-95 -103 c-2 -34 -8
-61 -13 -61 -10 0 -12 123 -2 133 13 14 18 -11 15 -72z m-2454 7 c-10 -7 -10
-11 0 -15 17 -7 15 -33 -3 -33 -17 0 -20 32 -5 61 8 14 7 19 -2 19 -9 0 -9 3
2 10 11 7 16 4 18 -12 2 -11 -2 -25 -10 -30z m-1944 27 c11 -8 15 -15 10 -15
-6 0 -19 7 -30 15 -10 8 -14 14 -9 14 6 0 19 -6 29 -14z m5361 -25 c-11 -5
-46 -9 -77 -9 -75 -1 -91 -8 -77 -32 5 -11 9 -50 7 -87 l-3 -67 -33 -3 c-24
-3 -38 3 -52 20 -16 19 -19 20 -20 6 0 -26 -12 -28 -58 -7 -39 18 -42 22 -42
59 0 21 5 51 11 67 8 22 7 30 -7 40 -14 10 10 13 132 16 82 1 169 3 194 4 33
1 40 -1 25 -7z m-4031 -19 c27 -29 123 -68 216 -87 72 -14 122 -16 325 -11
132 3 251 9 265 12 21 5 22 4 5 -4 -11 -5 -34 -10 -52 -10 -17 -1 -35 -5 -38
-11 -3 -5 -26 -10 -50 -10 l-44 0 2 -97 c2 -81 -1 -98 -13 -98 -12 0 -15 18
-15 98 l0 98 -50 -2 c-87 -2 -86 -2 -85 -77 3 -123 4 -119 -30 -114 -17 2 -33
8 -36 13 -3 5 -18 9 -33 9 -31 0 -46 13 -54 45 -4 18 -5 18 -6 -2 0 -13 -5
-23 -10 -23 -16 0 -195 71 -226 90 -16 9 -43 20 -58 24 -35 8 -47 39 -47 117
0 63 7 70 34 40z m2464 -11 c85 -68 257 -106 433 -95 78 5 99 4 94 -6 -5 -6
-7 -48 -6 -91 2 -63 -1 -79 -11 -76 -16 6 -24 128 -8 128 5 0 10 5 10 11 0 5
-5 7 -12 3 -8 -5 -9 -1 -4 12 6 15 5 17 -5 7 -7 -7 -22 -13 -32 -13 -18 0 -19
-5 -14 -54 8 -80 1 -96 -39 -96 -19 0 -34 5 -34 11 0 5 -4 7 -10 4 -5 -3 -10
2 -11 12 0 16 -1 16 -8 -2 -6 -16 -16 -19 -52 -16 -24 1 -48 6 -53 11 -5 5
-14 6 -21 4 -7 -3 -28 1 -48 9 -28 12 -41 29 -73 92 -25 51 -48 82 -66 91 -39
20 -40 19 -37 -30 3 -35 1 -42 -8 -34 -7 6 -13 25 -13 42 0 17 -4 48 -9 69 -5
20 -7 37 -4 37 2 0 21 -13 41 -30z m1582 -144 c-5 -5 -16 -6 -24 -3 -24 9 -22
112 2 126 15 9 18 3 24 -52 4 -34 3 -66 -2 -71z m-89 87 c14 -39 8 -97 -12
-101 -13 -2 -17 9 -22 54 -3 32 -4 61 -1 66 10 16 25 8 35 -19z m669 -104 c10
-17 9 -20 -1 -14 -9 6 -11 3 -6 -8 3 -10 2 -17 -2 -17 -5 0 -11 7 -15 15 -3 8
-1 15 4 15 6 0 10 4 10 10 0 5 -8 7 -17 4 -15 -5 -16 -4 -3 5 10 8 12 13 4 19
-12 7 -34 46 -34 58 0 8 42 -53 60 -87z m-1545 61 c3 -5 -1 -10 -10 -10 -9 0
-13 5 -10 10 3 6 8 10 10 10 2 0 7 -4 10 -10z m-3451 -38 c-5 -13 -4 -14 4 -3
8 11 23 7 84 -23 40 -20 76 -36 80 -36 4 0 53 -22 110 -49 221 -105 593 -235
858 -301 334 -83 612 -132 862 -151 177 -13 715 -7 888 10 690 70 1305 241
1846 515 114 58 129 63 138 47 4 -5 -4 -7 -16 -4 -19 4 -21 3 -8 -7 13 -10 12
-11 -3 -6 -10 3 -27 1 -37 -4 -18 -10 -17 -13 14 -68 52 -88 95 -236 96 -325
0 -50 -55 -207 -72 -207 -5 0 -8 -6 -8 -13 0 -38 -394 -192 -822 -323 -401
-121 -937 -213 -1363 -232 -640 -30 -1346 74 -2023 297 -195 64 -530 196 -681
267 -179 85 -321 155 -321 159 0 1 46 74 102 162 88 137 177 260 228 314 19
20 52 7 44 -19z m910 -14 c3 -13 7 -53 9 -90 l4 -68 -28 0 -29 0 0 90 c0 83 2
90 20 90 12 0 21 -8 24 -22z m2536 -25 c0 -44 -13 -84 -23 -73 -7 8 -15 109
-9 115 3 3 11 5 19 5 9 0 13 -15 13 -47z m820 -54 c-85 -39 -152 -61 -160 -53
-4 5 -12 24 -18 42 l-11 32 117 0 117 0 -45 -21z m775 -9 c3 -5 1 -10 -4 -10
-6 0 -11 5 -11 10 0 6 2 10 4 10 3 0 8 -4 11 -10z m-120 -20 c-3 -5 -10 -10
-16 -10 -5 0 -9 5 -9 10 0 6 7 10 16 10 8 0 12 -4 9 -10z m-1861 -35 c49 -8
118 -15 155 -15 36 0 73 -5 81 -10 13 -9 13 -10 0 -10 -12 0 -15 -16 -15 -82
l0 -83 -41 -3 -40 -3 4 61 c3 38 0 66 -7 73 -8 8 -11 -9 -11 -66 l0 -77 -30 0
c-16 0 -30 4 -30 9 0 4 -10 7 -22 5 -41 -7 -88 56 -104 140 -4 27 -16 44 -43
62 -31 22 -32 25 -11 21 14 -4 65 -13 114 -22z m2001 15 c3 -5 1 -10 -4 -10
-6 0 -11 5 -11 10 0 6 2 10 4 10 3 0 8 -4 11 -10z m20 -50 c3 -13 9 -26 14
-30 6 -3 6 -11 2 -19 -7 -11 -10 -9 -16 8 -10 33 -17 76 -10 70 3 -4 8 -17 10
-29z m-1640 -80 c0 -34 -5 -55 -12 -57 -10 -4 -13 12 -13 57 0 45 3 61 13 58
7 -3 12 -24 12 -58z m-81 34 c14 -36 6 -93 -13 -104 -11 -5 -22 -10 -24 -10
-2 0 -5 29 -6 65 -1 58 1 65 18 65 10 0 22 -7 25 -16z m1760 -20 c3 -8 2 -12
-4 -9 -6 3 -10 10 -10 16 0 14 7 11 14 -7z m80 -145 c16 -28 24 -55 20 -59
-15 -14 -86 -42 -79 -31 3 6 12 11 20 11 8 0 17 5 21 11 5 9 -1 10 -22 5 -24
-5 -26 -4 -11 5 10 6 29 8 42 5 19 -5 22 -3 18 14 -4 16 -8 18 -20 9 -18 -16
-36 1 -22 21 9 12 10 11 4 -5 -4 -14 -3 -17 4 -10 6 6 8 21 4 34 l-6 23 -14
-23 c-14 -23 -12 -11 5 30 3 8 1 12 -5 8 -5 -3 -10 0 -10 8 0 23 20 1 51 -56z
m-147 -11 c-2 -13 -4 -3 -4 22 0 25 2 35 4 23 2 -13 2 -33 0 -45z m29 -115
c-15 -8 -39 -12 -54 -10 -24 4 -23 4 6 6 18 0 31 5 28 10 -3 5 6 9 21 9 l27 0
-28 -15z m-83 -34 c5 -3 1 -9 -8 -12 -9 -4 -13 -3 -10 3 3 6 1 10 -5 10 -6 0
-8 5 -5 11 4 6 10 7 14 2 3 -4 10 -11 14 -14z m-113 -29 c0 -5 -5 -10 -11 -10
-5 0 -7 5 -4 10 3 6 8 10 11 10 2 0 4 -4 4 -10z"/>
<path d="M2312 8030 c0 -14 2 -19 5 -12 2 6 2 18 0 25 -3 6 -5 1 -5 -13z"/>
<path d="M3360 8228 c0 -9 5 -20 10 -23 13 -8 13 5 0 25 -8 13 -10 13 -10 -2z"/>
<path d="M6694 7684 c-18 -14 -18 -15 4 -4 12 6 22 13 22 15 0 8 -5 6 -26 -11z"/>
<path d="M6680 7649 c0 -5 5 -7 10 -4 6 3 10 8 10 11 0 2 -4 4 -10 4 -5 0 -10
-5 -10 -11z"/>
<path d="M7981 7441 c-19 -12 76 -33 158 -36 l64 -1 -53 17 c-64 21 -151 31
-169 20z m126 -27 c-3 -3 -12 -4 -19 -1 -8 3 -5 6 6 6 11 1 17 -2 13 -5z"/>
<path d="M8210 7366 c4 -4 16 -4 26 2 16 9 14 10 -8 9 -15 -1 -23 -6 -18 -11z"/>
<path d="M6782 6793 c-11 -28 -8 -256 4 -276 8 -14 10 21 10 137 -1 86 -2 156
-4 156 -1 0 -6 -8 -10 -17z"/>
<path d="M7135 6690 c-3 -5 -1 -10 4 -10 6 0 11 5 11 10 0 6 -2 10 -4 10 -3 0
-8 -4 -11 -10z"/>
<path d="M1986 6412 c-2 -4 -1 -14 5 -22 7 -12 9 -10 9 8 0 23 -5 28 -14 14z"/>
<path d="M1946 6365 c4 -8 10 -15 15 -15 4 0 6 7 3 15 -4 8 -10 15 -15 15 -4
0 -6 -7 -3 -15z"/>
<path d="M5085 6915 c-5 -2 -28 -9 -50 -14 -48 -12 -131 -81 -189 -154 l-40
-52 61 58 c103 96 222 138 336 118 85 -15 192 -69 257 -130 40 -38 56 -47 58
-35 12 52 -139 175 -245 200 -53 13 -164 18 -188 9z"/>
<path d="M4983 6745 c-71 -36 -116 -91 -143 -176 -58 -179 19 -379 174 -453
139 -68 344 -51 438 37 19 17 27 27 19 21 -39 -29 -105 -55 -148 -60 l-48 -5
36 20 c19 11 53 39 73 62 118 130 113 330 -11 460 -76 79 -145 112 -253 117
-77 3 -90 1 -137 -23z m395 -140 c38 -32 48 -74 28 -113 -40 -77 -166 -46
-166 40 0 32 21 74 44 90 22 15 65 7 94 -17z"/>
<path d="M3316 6771 c-76 -149 -75 -352 3 -516 48 -101 63 -109 31 -15 -52
153 -57 305 -16 499 9 41 14 76 12 78 -3 3 -16 -18 -30 -46z"/>
<path d="M3708 6721 c-123 -40 -198 -153 -198 -301 0 -125 52 -226 149 -290
38 -26 41 -30 20 -30 -13 0 -41 4 -61 9 -46 11 -48 7 -8 -14 17 -9 30 -13 30
-9 0 4 7 1 14 -6 34 -27 275 -3 268 28 -1 7 4 12 12 12 20 0 85 76 110 129 31
68 30 215 -3 289 -27 60 -103 135 -166 163 -49 22 -130 31 -167 20z m257 -135
c59 -25 74 -88 30 -131 -50 -51 -135 -15 -135 57 0 38 6 48 40 71 29 20 23 20
65 3z"/>
<path d="M4173 5931 c-82 -39 -95 -128 -28 -196 19 -19 53 -39 75 -45 34 -9
40 -15 40 -38 0 -15 3 -37 6 -48 7 -26 -25 -59 -64 -67 -42 -9 -113 31 -137
76 -17 32 -24 37 -50 35 -44 -4 -46 -49 -6 -106 43 -59 100 -86 182 -87 56 0
71 4 100 26 l35 27 44 -27 c39 -22 57 -26 125 -26 70 0 87 4 134 30 94 52 148
173 86 189 -34 9 -39 4 -64 -47 -28 -59 -86 -91 -158 -89 -91 2 -135 38 -148
119 -6 39 -5 43 18 48 66 17 105 110 73 173 -23 44 -68 65 -151 69 -55 3 -79
-1 -112 -16z m156 -10 c14 -4 26 -12 29 -19 3 -9 -14 -12 -61 -12 -48 0 -70
-5 -89 -19 -27 -22 -52 -14 -46 15 7 37 95 55 167 35z"/>
<path d="M5805 4103 c3 -10 9 -49 12 -88 7 -92 19 -113 28 -52 4 26 5 57 2 70
-3 12 -8 32 -11 45 -7 29 -15 42 -28 42 -6 0 -7 -8 -3 -17z"/>
<path d="M8460 5286 c0 -2 7 -7 16 -10 8 -3 12 -2 9 4 -6 10 -25 14 -25 6z"/>
<path d="M7748 4818 c-16 -25 -29 -58 -24 -58 2 0 13 18 25 40 22 43 22 54 -1
18z"/>
<path d="M3048 4823 c7 -3 16 -2 19 1 4 3 -2 6 -13 5 -11 0 -14 -3 -6 -6z"/>
<path d="M1784 4672 c8 -13 66 -56 66 -49 0 3 -17 17 -37 33 -20 15 -33 23
-29 16z"/>
<path d="M8576 4453 c-6 -14 -5 -15 5 -6 7 7 10 15 7 18 -3 3 -9 -2 -12 -12z"/>
<path d="M8432 4340 c0 -14 2 -19 5 -12 2 6 2 18 0 25 -3 6 -5 1 -5 -13z"/>
<path d="M7870 4386 c0 -2 24 -16 53 -31 68 -34 91 -71 90 -144 0 -32 -5 -57
-12 -59 -6 -2 -11 -8 -11 -13 0 -15 58 19 70 40 29 56 -19 137 -103 175 -61
27 -87 37 -87 32z"/>
<path d="M7528 4263 c7 -3 16 -2 19 1 4 3 -2 6 -13 5 -11 0 -14 -3 -6 -6z"/>
<path d="M7600 4256 c0 -10 28 -13 41 -5 10 6 7 9 -13 9 -16 0 -28 -2 -28 -4z"/>
<path d="M7565 4190 c-3 -5 1 -10 9 -10 9 0 16 5 16 10 0 6 -4 10 -9 10 -6 0
-13 -4 -16 -10z"/>
<path d="M7940 4130 c0 -5 10 -10 23 -10 18 0 19 2 7 10 -19 13 -30 13 -30 0z"/>
<path d="M7511 3954 c0 -11 3 -14 6 -6 3 7 2 16 -1 19 -3 4 -6 -2 -5 -13z"/>
<path d="M2005 4169 c-4 -6 -5 -12 -2 -15 2 -3 7 2 10 11 7 17 1 20 -8 4z"/>
<path d="M2540 4066 c0 -14 -4 -28 -10 -31 -13 -8 -13 -25 1 -25 5 0 7 5 3 12
-5 7 -2 9 7 6 10 -4 14 3 14 28 0 19 -3 34 -7 34 -4 0 -8 -11 -8 -24z"/>
<path d="M2468 4007 c-24 -11 -26 -14 -15 -34 l12 -22 30 20 c17 12 22 18 13
15 -27 -9 -44 -13 -35 -9 4 3 4 10 1 15 -4 6 -2 8 3 5 6 -4 16 0 23 8 15 18 5
18 -32 2z"/>
<path d="M2965 3630 c-13 -15 -31 -20 -67 -20 -26 0 -48 -4 -48 -9 0 -5 8 -8
18 -6 9 2 31 4 48 4 31 1 84 34 73 45 -3 3 -14 -3 -24 -14z"/>
<path d="M7285 3747 c21 -12 52 -35 67 -51 25 -25 28 -35 27 -87 -1 -33 -6
-59 -10 -59 -5 0 -9 -7 -9 -15 0 -12 4 -13 19 -5 37 19 51 41 51 81 0 62 -74
135 -155 153 -28 6 -27 4 10 -17z"/>
<path d="M6461 3641 c-6 -11 -7 -22 -2 -25 5 -3 11 4 14 16 8 30 1 35 -12 9z"/>
<path d="M6983 3613 c32 -5 51 -34 42 -66 -5 -18 -4 -19 5 -5 13 21 8 57 -11
69 -8 5 -25 8 -39 7 -24 -1 -24 -1 3 -5z"/>
<path d="M6463 3555 c0 -22 2 -30 4 -17 2 12 2 30 0 40 -3 9 -5 -1 -4 -23z"/>
<path d="M6990 3520 c-9 -6 -10 -10 -3 -10 6 0 15 5 18 10 8 12 4 12 -15 0z"/>
<path d="M6776 3264 c-3 -9 -2 -23 4 -32 7 -14 9 -10 10 16 0 35 -5 41 -14 16z"/>
<path d="M7500 3790 c0 -5 5 -10 10 -10 6 0 10 5 10 10 0 6 -4 10 -10 10 -5 0
-10 -4 -10 -10z"/>
<path d="M2043 3445 c0 -22 2 -30 4 -17 2 12 2 30 0 40 -3 9 -5 -1 -4 -23z"/>
<path d="M1980 3446 c0 -8 4 -17 9 -20 5 -4 7 3 4 14 -6 23 -13 26 -13 6z"/>
<path d="M4613 3323 c19 -19 59 -25 69 -10 12 19 -2 27 -45 27 -39 0 -40 -1
-24 -17z"/>
<path d="M3876 3370 c84 -47 114 -117 79 -184 -21 -41 -19 -45 9 -14 12 15 27
24 31 20 5 -4 5 -2 1 5 -3 6 -1 15 5 18 6 4 8 18 4 34 -4 14 -8 31 -9 37 -1 7
-8 19 -16 28 -16 20 -126 86 -143 86 -7 0 11 -13 39 -30z"/>
<path d="M3610 3251 c0 -5 5 -13 10 -16 6 -3 10 -2 10 4 0 5 -4 13 -10 16 -5
3 -10 2 -10 -4z"/>
<path d="M3640 3213 c0 -12 -3 -14 -8 -6 -5 8 -11 4 -18 -12 -11 -23 -11 -24
12 -8 21 13 34 43 19 43 -3 0 -5 -8 -5 -17z"/>
<path d="M3545 3160 c-13 -5 -14 -9 -5 -9 8 0 24 4 35 9 13 5 14 9 5 9 -8 0
-24 -4 -35 -9z"/>
<path d="M3021 3024 c0 -11 3 -14 6 -6 3 7 2 16 -1 19 -3 4 -6 -2 -5 -13z"/>
<path d="M3381 2944 c0 -11 3 -14 6 -6 3 7 2 16 -1 19 -3 4 -6 -2 -5 -13z"/>
<path d="M6345 3342 c11 -13 25 -20 34 -17 8 3 12 3 9 0 -4 -4 4 -27 18 -52
18 -34 21 -49 13 -59 -11 -13 -4 -54 10 -54 4 0 16 15 26 33 15 28 16 37 5 58
-19 36 -73 89 -90 89 -9 0 -22 6 -30 13 -8 6 -6 2 5 -11z m99 -146 c-3 -9 -10
-16 -15 -16 -5 0 -4 9 3 20 14 22 21 20 12 -4z"/>
<path d="M6066 3195 c4 -8 8 -15 10 -15 2 0 4 7 4 15 0 8 -4 15 -10 15 -5 0
-7 -7 -4 -15z"/>
<path d="M6066 3155 c-9 -26 -7 -32 5 -12 6 10 9 21 6 23 -2 3 -7 -2 -11 -11z"/>
<path d="M2020 3213 c0 -6 8 -17 18 -24 16 -13 16 -13 2 6 -8 11 -16 22 -17
24 -2 2 -3 0 -3 -6z"/>
<path d="M2185 2680 c-3 -5 -2 -10 4 -10 5 0 13 5 16 10 3 6 2 10 -4 10 -5 0
-13 -4 -16 -10z"/>
<path d="M5140 2746 c0 -2 20 -16 44 -30 53 -31 92 -76 119 -135 14 -31 16
-46 8 -54 -6 -6 -11 -15 -11 -20 0 -5 8 -1 17 9 23 23 22 81 -1 117 -21 32
-89 81 -141 103 -19 8 -35 12 -35 10z m187 -188 c-3 -7 -5 -2 -5 12 0 14 2 19
5 13 2 -7 2 -19 0 -25z"/>
<path d="M5170 2640 c0 -5 5 -10 11 -10 5 0 7 5 4 10 -3 6 -8 10 -11 10 -2 0
-4 -4 -4 -10z"/>
<path d="M5203 2595 c11 -21 12 -36 6 -48 -7 -11 -6 -17 1 -17 20 0 15 58 -7
80 -14 13 -14 12 0 -15z"/>
<path d="M4868 2534 c4 -31 1 -35 -29 -49 -34 -14 -23 -20 19 -9 18 5 22 13
22 45 0 21 -4 40 -8 43 -4 2 -6 -11 -4 -30z"/>
<path d="M4715 2460 c-3 -6 1 -7 9 -4 18 7 21 14 7 14 -6 0 -13 -4 -16 -10z"/>
<path d="M5036 2337 c10 -6 24 -5 38 1 18 8 16 10 -17 9 -28 -1 -33 -3 -21
-10z"/>
<path d="M6701 2654 c0 -11 3 -14 6 -6 3 7 2 16 -1 19 -3 4 -6 -2 -5 -13z"/>
<path d="M6787 2586 c-4 -10 -5 -21 -2 -24 9 -9 17 6 13 25 -3 17 -4 17 -11
-1z"/>
<path d="M3141 2484 c0 -11 3 -14 6 -6 3 7 2 16 -1 19 -3 4 -6 -2 -5 -13z"/>
<path d="M2520 2427 c0 -2 6 -10 14 -16 11 -9 16 -9 22 1 4 7 4 10 -1 6 -4 -4
-14 -3 -22 3 -7 6 -13 9 -13 6z"/>
<path d="M5223 1684 c4 -4 2 -13 -4 -20 -8 -9 -5 -11 10 -7 25 7 27 19 4 27
-10 4 -14 4 -10 0z"/>
<path d="M6045 8360 c-262 -54 -511 -348 -601 -709 -40 -162 -28 -247 31 -210
12 8 76 65 140 127 65 62 126 117 135 122 15 8 18 1 23 -60 7 -87 46 -291 59
-307 5 -6 17 -10 26 -9 15 3 18 23 23 167 6 172 23 280 65 401 13 39 22 74 19
76 -3 3 -5 0 -5 -8 0 -9 -9 -11 -30 -6 -24 4 -30 2 -30 -12 0 -10 -29 -36 -66
-61 -36 -24 -87 -64 -114 -87 l-48 -44 -7 27 c-6 26 -7 26 -17 9 -6 -11 -12
-29 -13 -40 -4 -33 -4 -34 -18 -39 -11 -4 -10 7 4 46 27 82 82 180 102 183 9
1 15 -2 11 -7 -3 -5 -9 -7 -14 -4 -4 2 -14 -10 -21 -28 -7 -17 -18 -35 -23
-39 -11 -8 3 -21 29 -31 6 -3 6 -8 2 -13 -4 -5 -11 -4 -15 1 -11 15 -32 16
-32 2 0 -7 7 -22 16 -33 14 -17 15 -17 10 -1 -3 10 -2 16 3 13 4 -3 15 2 24
12 16 18 17 20 17 49 0 16 1 16 13 0 11 -16 14 -16 32 -2 19 16 19 16 -3 5
-21 -10 -22 -10 -10 9 9 14 19 19 32 15 15 -5 18 -3 13 10 -6 14 -3 15 16 5
l22 -12 -20 23 -20 23 24 -13 c21 -11 23 -10 18 4 -5 11 1 20 18 28 28 13 24
27 -8 29 -18 1 -19 2 -4 6 11 3 28 12 38 21 11 10 23 16 27 16 4 -1 19 7 34
17 14 10 31 19 37 19 6 0 11 7 11 16 0 9 16 31 35 50 23 21 30 34 22 38 -6 3
0 3 16 1 23 -3 29 2 45 37 19 40 18 88 0 88 -6 0 -8 -12 -5 -28 8 -39 -6 -59
-20 -29 -9 20 -18 24 -47 22 l-35 -3 27 24 c15 13 22 24 16 24 -6 0 -24 -12
-40 -27 -16 -15 -30 -26 -31 -25 -2 1 -11 -5 -20 -13 -48 -42 -83 -66 -83 -56
0 6 3 11 8 11 4 0 24 16 46 36 48 44 166 124 183 124 7 0 13 7 13 15 0 17 -21
18 -85 5z m54 -190 c-1 -10 -2 -11 -6 -2 -2 6 -11 12 -19 12 -17 0 -18 12 -2
28 10 10 14 9 20 -5 3 -10 7 -25 7 -33z m-254 -54 c-14 -15 -23 -31 -19 -38 4
-7 3 -8 -4 -4 -12 7 -38 -31 -34 -51 1 -6 -2 -14 -8 -18 -6 -4 -7 1 -3 11 5
13 3 15 -8 9 -11 -7 -12 -6 -3 6 79 105 94 122 102 115 2 -2 -9 -16 -23 -30z
m45 0 c0 -3 -4 -8 -10 -11 -5 -3 -10 -1 -10 4 0 6 5 11 10 11 6 0 10 -2 10 -4z
m-71 -94 c7 -13 6 -19 -2 -19 -7 0 -13 9 -13 19 0 10 1 18 3 18 1 0 7 -8 12
-18z m-105 -167 c-4 -8 -8 -15 -10 -15 -2 0 -4 7 -4 15 0 8 4 15 10 15 5 0 7
-7 4 -15z m-54 -106 c0 -11 -4 -18 -10 -14 -5 3 -7 12 -3 20 7 21 13 19 13 -6z"/>
<path d="M7192 8323 c-7 -10 -10 -12 -7 -5 3 6 4 12 2 12 -10 0 -67 -97 -67
-113 0 -9 -8 -21 -17 -27 -14 -9 -9 -10 22 -5 62 10 72 19 79 75 4 28 9 57 12
65 8 21 -8 19 -24 -2z"/>
<path d="M6075 8300 c3 -5 8 -10 11 -10 2 0 4 5 4 10 0 6 -5 10 -11 10 -5 0
-7 -4 -4 -10z"/>
<path d="M6060 8265 c-8 -9 -8 -15 -2 -15 12 0 26 19 19 26 -2 2 -10 -2 -17
-11z"/>
<path d="M7340 8232 c0 -4 9 -8 20 -9 11 -1 20 2 20 8 0 5 -9 9 -20 9 -11 0
-20 -4 -20 -8z"/>
<path d="M7250 8220 c-12 -8 -11 -10 8 -10 12 0 22 5 22 10 0 13 -11 13 -30 0z"/>
<path d="M6076 8123 c-6 -14 -5 -15 5 -6 7 7 10 15 7 18 -3 3 -9 -2 -12 -12z"/>
<path d="M5945 7969 c-4 -6 -5 -12 -2 -15 2 -3 7 2 10 11 7 17 1 20 -8 4z"/>
</g>
</svg>
